<svg xmlns="http://www.w3.org/2000/svg" version="1.1" xmlns:xlink="http://www.w3.org/1999/xlink" xmlns:svgjs="http://svgjs.dev/svgjs" width="1440" height="560" preserveAspectRatio="none" viewBox="0 0 1440 560"><g mask="url(&quot;#SvgjsMask1232&quot;)" fill="none"><rect width="1440" height="560" x="0" y="0" fill="url(&quot;#SvgjsLinearGradient1233&quot;)"></rect><path d="M1440 0L849.1 0L1440 91.89z" fill="rgba(255, 255, 255, .1)"></path><path d="M849.1 0L1440 91.89L1440 92.42L597.05 0z" fill="rgba(255, 255, 255, .075)"></path><path d="M597.05 0L1440 92.42L1440 266.18L227.68999999999994 0z" fill="rgba(255, 255, 255, .05)"></path><path d="M227.69000000000005 0L1440 266.18L1440 451.93L93.89000000000004 0z" fill="rgba(255, 255, 255, .025)"></path><path d="M0 560L12.76 560L0 503.11z" fill="rgba(0, 0, 0, .1)"></path><path d="M0 503.11L12.76 560L449.08 560L0 480.61z" fill="rgba(0, 0, 0, .075)"></path><path d="M0 480.61L449.08 560L913.22 560L0 195.39z" fill="rgba(0, 0, 0, .05)"></path><path d="M0 195.39L913.22 560L1120.66 560L0 180.52999999999997z" fill="rgba(0, 0, 0, .025)"></path></g><defs><mask id="SvgjsMask1232"><rect width="1440" height="560" fill="#ffffff"></rect></mask><linearGradient x1="15.28%" y1="-39.29%" x2="84.72%" y2="139.29%" gradientUnits="userSpaceOnUse" id="SvgjsLinearGradient1233"><stop stop-color="#0e2a47" offset="0"></stop><stop stop-color="rgba(158, 72, 0, 1)" offset="1"></stop></linearGradient></defs></svg>